<svg viewBox="0 0 256 256" version="1.1" xmlns="http://www.w3.org/2000/svg" desc="Created with imagetracer.js version 1.2.6" ><path fill="rgb(0,0,0)" stroke="rgb(0,0,0)" stroke-width="0" opacity="0" d="M 0 0 L 256 0 L 256 256 L 0 256 L 0 0 Z M 124 41 L 102 45 L 92 49 L 81 55 L 71 63 Q 60 72 53 86 L 46 103 L 43 118 L 43 139 L 45 150 Q 51 170 63 184 Q 72 195 86 203 L 98 209 L 121 214 L 137 214 L 159 209 Q 178 201 191 187 Q 190 184 193 185 L 203 170 L 209 157 L 214 132 L 213 116 L 209 99 Q 204 84 195 74 Q 181 57 161 47 L 143 42 L 124 41 Z " /><path fill="rgb(0,0,0)" stroke="rgb(0,0,0)" stroke-width="0" opacity="0" d="M 119.5 57 L 137.5 57 L 152.5 61 L 170.5 71 L 181 81.5 Q 190.24 91.76 195 106.5 L 197 117.5 L 197 137.5 L 195 147.5 L 190 160.5 L 180 175 Q 177.33 173.88 178 176.5 L 175 178 Q 176.13 180.67 173.5 180 L 161.5 190 L 147.5 196 Q 140.79 195.29 137.5 198 L 117.5 198 L 113.5 196 L 106.5 195 L 91.5 188 L 75 173.5 Q 66.77 163.73 62 150.5 L 60 142.5 L 60 133.5 L 59 132.5 L 59 119.5 L 62 104.5 L 68 91.5 Q 74.85 79.35 85.5 71 L 98.5 63 L 111.5 58 Q 117.75 59.75 119.5 57 Z M 127 80 L 124 81 L 120 86 L 120 119 L 119 120 L 88 120 L 84 122 Q 81 124 82 131 L 87 135 L 91 136 L 119 136 L 120 138 L 120 170 L 127 175 L 133 173 L 136 169 L 136 138 L 138 136 L 168 136 L 173 133 L 175 129 L 173 124 L 169 120 L 136 120 L 136 86 Q 134 80 127 80 Z " /><path fill="rgb(17,17,17)" stroke="rgb(17,17,17)" stroke-width="0" opacity="1" d="M 123.5 41 L 142.5 42 L 160.5 47 Q 181.34 56.66 195 73.5 Q 203.64 84.36 209 98.5 L 213 115.5 L 214 131.5 L 209 156.5 L 203 169.5 L 193 185 Q 190.33 183.88 191 186.5 Q 177.65 200.65 158.5 209 L 136.5 214 L 120.5 214 L 97.5 209 L 85.5 203 Q 72.4 195.1 63 183.5 Q 50.69 169.81 45 149.5 L 43 138.5 L 43 117.5 L 46 102.5 L 53 85.5 Q 59.98 72.48 70.5 63 L 80.5 55 L 91.5 49 L 101.5 45 L 123.5 41 Z M 120 57 Q 118 60 112 58 L 99 63 L 86 71 Q 75 79 68 92 L 62 105 L 59 120 L 59 133 L 60 134 L 60 143 L 62 151 Q 67 164 75 174 L 92 188 L 107 195 L 114 196 L 118 198 L 138 198 Q 141 195 148 196 L 162 190 L 174 180 Q 176 181 175 178 L 178 177 Q 177 174 180 175 L 190 161 L 195 148 L 197 138 L 197 118 L 195 107 Q 190 92 181 82 L 171 71 L 153 61 L 138 57 L 120 57 Z " /><path fill="rgb(17,17,17)" stroke="rgb(17,17,17)" stroke-width="0" opacity="1" d="M 126.5 80 Q 133.75 80.25 136 85.5 L 136 120 L 168.5 120 L 173 123.5 L 175 128.5 L 173 133 L 167.5 136 L 137.5 136 L 136 137.5 L 136 168.5 L 132.5 173 L 126.5 175 L 120 169.5 L 120 137.5 L 118.5 136 L 90.5 136 L 86.5 135 L 82 130.5 Q 81.43 124.29 84 122 L 87.5 120 L 118.5 120 L 120 118.5 L 120 85.5 L 123.5 81 L 126.5 80 Z " /></svg>